<svg fill="none" xmlns="http://w3.org" viewBox="0 0 1155 1000">
  <!-- Red Stylized H -->
  <path d="M 230 40
           A 30 30 0 0 1 260 10
           H 410
           A 30 30 0 0 1 440 40
           V 375
           Q 440 395 460 395
           H 695
           Q 715 395 715 375
           V 40
           A 30 30 0 0 1 745 10
           H 895
           A 30 30 0 0 1 925 40
           V 960
           A 30 30 0 0 1 895 990
           H 745
           A 30 30 0 0 1 715 960
           V 625
           Q 715 605 695 605
           H 460
           Q 440 605 440 625
           V 960
           A 30 30 0 0 1 410 990
           H 260
           A 30 30 0 0 1 230 960
           Z" 
        fill="#A62121"/>
</svg>
